<?xml version="1.0" encoding="UTF-8"?>
<svg id="Capa_1" data-name="Capa 1" xmlns="http://www.w3.org/2000/svg" viewBox="0 0 482.26 308.86">
  <defs>
    <style>
      .cls-1 {
        fill-rule: evenodd;
      }

      .cls-1, .cls-2, .cls-3 {
        stroke-width: 0px;
      }

      .cls-1, .cls-3 {
        fill: #fff;
      }

      .cls-2 {
        fill: #4a72b2;
      }
    </style>
  </defs>
  <g>
    <path class="cls-2" d="m1.06,274.01c3.78-8.85,16.14-7.81,16.66-.65-4.82-4.56-10.42-2.86-11.85,1.43-.91,2.99,1.69,5.73,5.86,5.73,10.02.13,19.53-7.55,30.2-29.03,5.86-11.72,11.85-24.08,17.84-34.89-9.63.78-21.35,6.25-26.17,16.27-4.04,8.72-2.08,11.59,3.38,10.94-8.46,10.54-22.78,1.17-11.85-13.8,8.33-11.59,25.26-16.92,43.48-16.66-5.99,14.32-7.03,24.74-8.46,41.92,13.93-20.05,38.41-44.78,56.24-43.22-17.31,2.6-45.96,67.31-32.94,67.31,3.65,0,12.11-11.07,18.1-23.43.52-.39,1.3-.13,1.3.65-8.46,17.05-17.18,30.33-25.65,30.33-15.23,0-8.59-31.38,8.46-53.9-12.76,9.89-27.34,30.72-38.28,53.9-1.04-12.76,1.82-34.63,5.21-48.04-1.69,2.86-3.25,5.6-4.56,8.33-11.46,23.82-23.56,43.61-36.32,43.61-11.59,0-13.28-10.94-10.67-16.79Z"/>
    <path class="cls-2" d="m94.02,266.46c5.47-9.76,13.15-18.49,21.09-18.49,2.47,0,4.56,1.04,4.43,4.69l1.56-3.25h8.85l-9.89,22c-1.56,3.52-3.51,6.51-1.3,6.51,2.99,0,10.94-9.63,16.92-22,.52-.39,1.3-.13,1.3.65-8.33,17.05-17.45,28.9-23.43,28.9-4.43,0-6.38-5.21-4.69-10.81-3.91,5.99-7.81,10.54-12.37,10.54-7.03,0-7.94-8.85-2.47-18.75Zm19.66-2.08c3.25-5.99,6.38-13.28,2.86-13.28s-7.55,6.38-12.24,14.97c-4.69,8.46-4.56,11.98-1.95,11.98s6.77-5.34,11.33-13.67Z"/>
    <path class="cls-2" d="m119.14,299.01c.52-10.67,13.28-13.41,20.44-11.33,1.43-4.3,2.73-9.63,4.56-14.58-4.3,6.77-8.46,12.11-13.41,12.11-7.16,0-7.94-8.85-2.47-18.75,5.47-9.76,13.15-18.49,20.96-18.49,2.6,0,4.69,1.04,4.56,4.69l1.56-3.25h8.98c-1.3,2.6-8.46,18.62-10.02,22-1.69,4.17-2.99,8.33-4.17,12.5,5.6-3.91,13.67-14.97,19.79-27.99.52-.39,1.43-.13,1.3.65-6.77,13.8-16.14,27.6-22.65,32.29-1.82,5.86-3.78,11.07-7.03,14.84-6.12,7.29-23.04,7.81-22.39-4.69Zm16.53-2.73c1.17-1.43,2.08-3.52,2.99-5.99-5.08-2.47-12.37.52-13.02,4.56-.78,5.08,6.38,6.12,10.03,1.43Zm12.24-31.9c3.25-5.99,6.38-13.28,2.86-13.28s-7.55,6.38-12.24,14.97c-4.69,8.46-4.56,11.98-1.95,11.98s6.77-5.34,11.33-13.67Z"/>
    <path class="cls-2" d="m162.63,270.63l10.42-21.22h8.85l-10.02,22c-1.43,3.52-3.51,6.51-1.3,6.51,3.12,0,11.07-9.63,16.92-22,.65-.39,1.43-.13,1.3.65-8.33,17.05-17.32,28.9-23.3,28.9-6.77,0-6.77-7.29-2.86-14.84Zm12.24-31.5c0-3.25,2.6-5.86,5.86-5.86s5.86,2.6,5.86,5.86-2.6,5.86-5.86,5.86-5.86-2.6-5.86-5.86Z"/>
    <path class="cls-2" d="m204.16,247.33c7.55-.26,7.42,7.03,3.64,11.07-6.51,6.9-11.85,1.43-8.2-2.86,8.07,1.43,9.5-6.51,3.78-5.6-11.59,1.69-21.22,27.08-9.11,27.08,6.77,0,13.15-5.99,20.7-21.09.65-.26,1.17,0,1.3.65-8.98,19.53-19.27,28.9-28.25,28.9-19.01,0-5.47-37.49,16.14-38.15Z"/>
    <path class="cls-2" d="m230.98,275.32c3.52-6.12,11.59-5.86,12.89-1.17-2.99-1.82-7.03-.91-8.33,2.08-1.04,2.6.26,5.6,4.69,5.6,7.42,0,12.76-5.21,22.39-24.87,9.37-19.4,20.96-31.64,32.29-33.98l-6.64-2.34c-7.68-2.47-21.61-4.56-30.2,6.38-6.38,8.07-4.17,18.1-.13,21.35-9.37,2.47-17.58-7.55-10.42-19.27,8.2-13.54,26.82-16.27,43.22-13.41,15.88,2.73,30.33,1.17,29.68-3.78,5.73.91,7.29,11.46-1.3,14.84-5.86,2.34-12.24.52-19.66-2.08-8.59,3.38-17.83,14.97-25.65,33.98-8.46,20.7-18.36,32.16-30.2,32.16s-16.01-9.5-12.63-15.49Z"/>
    <path class="cls-2" d="m280.19,265.03c5.34-10.81,12.89-16.92,20.18-17.32,5.34-.13,8.2,3.52,6.9,10.68,3.25.65,6.25-.26,8.2-2.47.65-.39,1.56-.13,1.3.65-2.47,3.12-6.38,4.95-10.15,4.69-.52,1.95-1.3,4.17-2.34,6.51-4.82,10.68-13.41,17.97-21.22,17.45-7.03-.52-7.81-10.15-2.86-20.18Zm19.4.26c4.04-10.67,2.6-15.1.65-15.1-2.73,0-6.12,4.04-10.28,13.93-3.65,8.85-3.25,14.97.13,14.97,2.47,0,5.73-4.04,9.5-13.8Z"/>
    <path class="cls-2" d="m308.31,270.63l10.29-21.22h8.98c-1.3,2.6-8.46,18.62-10.02,22-1.43,3.52-2.47,6.64.13,6.51,2.34,0,6.38-5.73,10.81-14.06l7.03-14.45h8.85l-9.89,22c-1.56,3.52-3.51,6.51-1.3,6.51,2.99,0,10.81-9.63,16.79-22,.52-.39,1.43-.13,1.3.65-8.33,17.05-17.32,28.9-23.3,28.9-5.08,0-6.38-4.17-4.95-9.37-4.04,5.86-7.68,9.37-11.07,9.37-7.16,0-7.55-7.29-3.65-14.84Z"/>
    <path class="cls-2" d="m346.19,277.14c1.82-6.51,6.9-14.19,8.59-16.92,3.65-5.47,1.17-5.6-3.38-3.65-1.3.65-4.17.26-3.38-5.08.78-4.69,4.17-9.24,6.77-9.37,3.52-.13,2.73,3.65-2.08,11.85,3.38-1.3,12.24-5.86,14.71-4.56,1.43.78,1.04,3.12-2.99,9.11-3.78,5.47-6.9,11.59-7.81,14.97-.65,2.34-.91,4.43.52,4.43,3.64,0,11.07-9.63,16.92-22,.65-.39,1.43-.13,1.3.65-8.33,17.05-16.27,28.9-24.22,28.9-4.3,0-5.99-3.91-4.95-8.33Z"/>
    <path class="cls-2" d="m363.77,275.97c.26-3.25,2.34-6.77,4.56-6.51-3.78,4.43-1.43,8.85,2.21,8.98s4.69-2.73,4.69-5.21c.13-3.91-1.95-12.89-1.17-17.31.52-3.25,2.86-5.73,5.6-6.51h8.2c-8.72,5.73-3.25,15.23-4.17,23.96-.13,1.82-.52,3.38-1.04,4.69,5.73-4.3,10.16-11.85,15.1-22.13.52-.39,1.3-.13,1.3.65-8.46,17.05-16.27,28.9-26.95,28.9h-.65c-4.95,0-7.94-4.43-7.68-9.5Z"/>
    <path class="cls-2" d="m420.01,249.41h8.59l-2.73,6.12c3.65-4.43,7.55-7.68,11.72-7.68,3.91,0,5.86,3.25,4.17,10.67,3,.13,6.12-.78,8.59-2.6.65-.39,1.56-.13,1.3.65-2.99,2.73-6.9,4.43-10.68,4.69-.52,1.95-1.43,4.17-2.47,6.64-5.21,11.98-11.33,17.45-16.14,17.58-3.12,0-6.38-2.08-6.64-6.38l-10.42,23.82h-8.59l23.3-53.51Zm0,29.94c4.56,0,8.59-10.02,9.63-12.37,4.04-9.37,4.17-11.98,1.56-11.98-3.91,0-7.68,6.25-10.15,11.85l-2.34,5.34c-1.69,3.91-2.08,7.16,1.3,7.16Z"/>
    <path class="cls-2" d="m444.1,270.24c2.6-5.73,5.86-12.89,8.59-20.83h8.98c-2.6,7.03-6.25,15.49-9.11,21.48-1.95,4.3-1.82,7.81,1.04,7.81,3.52,0,8.85-9.76,11.33-20.57-2.08-3.12-.91-7.81,1.3-11.33,5.99-.65,9.11,3.65,6.51,11.46,3,.78,5.73-.13,8.2-2.34.65-.39,1.43-.13,1.3.65-3.25,3.39-6.9,5.21-10.54,4.69l-1.3,2.47c-6.64,12.11-16.66,21.74-23.56,21.74-4.95,0-6.9-6.38-2.73-15.23Z"/>
  </g>
  <g>
    <circle class="cls-2" cx="242.45" cy="98.03" r="98.03"/>
    <path class="cls-3" d="m184.76,155.15l2.71-1.21c-3.52,7.03,0,3.22,0,3.22l2.51-3.72c14.77-5.12,32.06.5,32.06.5v.8s-1.51.8-1,2.31c.5,1.51,1.51-.5,1.91-1,.4-.5,2.21,0,2.21,0,1.41-3.82,10.35-10.85,23.01-15.58s13.47,2.61,13.47,2.61c0,0-13.36,10.25-6.53,10.55,6.83.3,7.74-9.75,7.74-9.75,2.11-3.52,18.19-26.63,8.14-61.5-10.05-34.87-40.09-48.03-40.09-48.03l1.99-23.74c.12-.37.23-.6.32-.63.5-.15,2.36.95,2.36.95-4.32-6.78-13.87-1.86-13.87,1.21s-.35,5.53-3.27,7.29c-2.91,1.76-10.55-2.86-10.55-2.86.75,4.37,10.15,7.89,12.41,7.34,2.26-.55,4.37-1.06,4.37-6.03s6.93-1.11,6.93-1.11c0,0,0-.04.02-.1l-1.73,17.19s-3.12-1.91-3.92-2.01c-.8-.1-.4,1-.4,1l4.42,2.21c-.13,7.47-.69,14.66-1.58,21.56-.08.59-.7,4.96-.79,5.5-8.83,55.86-39.04,90.71-39.04,90.71-5.12,1.31-3.82,2.31-3.82,2.31Zm71.85-3.12c-4.8,1.73,4.07-5.6,4.07-5.6,0,0,.73,3.87-4.07,5.6Zm-26.06-116c16.68,56.21-.07,94.32-.07,94.32,8.11-38.18-1.88-70.6-1.88-70.6.8-3.95,1.95-23.72,1.95-23.72Z"/>
    <path class="cls-1" d="m302.85,157.85c-.28,0-.67-.02-1.17-.04-18.35-.65-36.29-.28-53.34,1.1.1-1.01.05-2.65-1.07-3.87-1.16-1.26-3.11-1.7-5.82-1.31-7.72,1.13-33.23,8.29-34.31,8.59l-.23.06-.13.2c-.44.7-.3,1.17-.11,1.43.49.67,1.69.48,2.18.36.31-.07,30.96-7.2,34.63-7.59,1.24-.13,2.06.1,2.14.61.05.34-.2.67-.31.69-.6.12-.89.44-1.02.69-.09.16-.13.33-.15.49-25.95,2.39-47.65,7.05-64.67,13.85.74.63,1.5,1.24,2.26,1.85,30.72-11.31,73.42-13.79,104.96-13.79h.3c-1.06.68-2.51,1.65-4.2,2.9-1.6-.09-2.89-.1-2.91-.1h0c-50.69-1.43-86.12,8.88-95.77,12.08-.2.07-.35.11-.43.14-.06.02-.15.05-.25.09.79.6,1.59,1.18,2.39,1.76,37.75-11.22,76.99-11.89,93.89-11.54-4.47,3.7-10.11,9.28-13.99,16.29l-.05.11c-.07.21-.35,1.28.35,1.81.16.12.35.18.55.18.07,0,.14,0,.21-.02.43-.09.81-.46,1.16-1.11,1.83-3.39,6.31-10,15.65-16.15.49-.33,4.01-2.43,4.41-2.65,2.16-1.18,4.45-2.28,6.82-3.27h10.79l.14-.08c.44-.25,1.84-1.15,1.56-2.24-.24-.98-1.58-1.43-4.46-1.52Z"/>
  </g>
</svg>