<?xml version="1.0" encoding="UTF-8"?>
<svg id="Capa_1" data-name="Capa 1" xmlns="http://www.w3.org/2000/svg" viewBox="0 0 737.39 196.05">
  <defs>
    <style>
      .cls-1 {
        fill-rule: evenodd;
      }

      .cls-1, .cls-2 {
        fill: #4a72b2;
      }

      .cls-1, .cls-2, .cls-3 {
        stroke-width: 0px;
      }

      .cls-3 {
        fill: #fff;
      }
    </style>
  </defs>
  <g>
    <path class="cls-3" d="m212.64,121.95c4.12-9.65,17.61-8.52,18.17-.71-5.25-4.97-11.36-3.12-12.92,1.56-.99,3.27,1.85,6.25,6.39,6.25,10.93.14,21.3-8.23,32.94-31.66,6.39-12.78,12.92-26.27,19.45-38.05-10.51.85-23.29,6.82-28.54,17.75-4.4,9.51-2.27,12.64,3.69,11.93-9.23,11.5-24.85,1.28-12.92-15.05,9.09-12.64,27.54-18.46,47.42-18.17-6.53,15.62-7.67,26.98-9.23,45.72,15.19-21.87,41.88-48.84,61.34-47.14-18.88,2.84-50.12,73.41-35.92,73.41,3.98,0,13.2-12.07,19.74-25.56.57-.43,1.42-.14,1.42.71-9.23,18.6-18.74,33.08-27.97,33.08-16.61,0-9.37-34.22,9.23-58.78-13.92,10.79-29.82,33.51-41.74,58.78-1.14-13.91,1.99-37.77,5.68-52.39-1.85,3.12-3.55,6.11-4.97,9.09-12.5,25.98-25.7,47.56-39.61,47.56-12.64,0-14.48-11.93-11.64-18.32Z"/>
    <path class="cls-3" d="m314.01,113.71c5.96-10.65,14.34-20.16,23-20.16,2.7,0,4.97,1.14,4.83,5.11l1.7-3.55h9.66l-10.79,24c-1.7,3.83-3.83,7.1-1.42,7.1,3.27,0,11.93-10.51,18.46-24,.57-.43,1.42-.14,1.42.71-9.09,18.6-19.03,31.52-25.56,31.52-4.83,0-6.96-5.68-5.11-11.78-4.26,6.53-8.52,11.5-13.49,11.5-7.67,0-8.66-9.65-2.7-20.45Zm21.44-2.27c3.55-6.53,6.96-14.48,3.12-14.48s-8.24,6.96-13.35,16.33c-5.11,9.23-4.97,13.06-2.13,13.06s7.38-5.82,12.35-14.91Z"/>
    <path class="cls-3" d="m341.41,149.21c.57-11.64,14.48-14.62,22.29-12.35,1.56-4.69,2.98-10.51,4.97-15.9-4.69,7.38-9.23,13.2-14.62,13.2-7.81,0-8.66-9.65-2.7-20.45,5.96-10.65,14.34-20.16,22.86-20.16,2.84,0,5.11,1.14,4.97,5.11l1.7-3.55h9.8c-1.42,2.84-9.23,20.3-10.93,24-1.85,4.54-3.27,9.09-4.54,13.63,6.11-4.26,14.91-16.33,21.58-30.53.57-.43,1.56-.14,1.42.71-7.38,15.05-17.61,30.1-24.71,35.21-1.99,6.39-4.12,12.07-7.67,16.19-6.67,7.95-25.13,8.52-24.42-5.11Zm18.03-2.98c1.28-1.56,2.27-3.83,3.27-6.53-5.54-2.7-13.49.57-14.2,4.97-.85,5.54,6.96,6.67,10.93,1.56Zm13.35-34.79c3.55-6.53,6.96-14.48,3.12-14.48s-8.24,6.96-13.35,16.33c-5.11,9.23-4.97,13.06-2.13,13.06s7.38-5.82,12.35-14.91Z"/>
    <path class="cls-3" d="m388.83,118.26l11.36-23.14h9.65l-10.93,24c-1.56,3.83-3.83,7.1-1.42,7.1,3.41,0,12.07-10.51,18.46-24,.71-.43,1.56-.14,1.42.71-9.09,18.6-18.88,31.52-25.42,31.52-7.38,0-7.38-7.95-3.12-16.19Zm13.35-34.36c0-3.55,2.84-6.39,6.39-6.39s6.39,2.84,6.39,6.39-2.84,6.39-6.39,6.39-6.39-2.84-6.39-6.39Z"/>
    <path class="cls-3" d="m434.12,92.84c8.24-.28,8.09,7.67,3.98,12.07-7.1,7.53-12.92,1.56-8.94-3.12,8.8,1.56,10.36-7.1,4.12-6.11-12.64,1.85-23.14,29.53-9.94,29.53,7.38,0,14.34-6.53,22.58-23,.71-.28,1.28,0,1.42.71-9.8,21.3-21.01,31.52-30.81,31.52-20.73,0-5.96-40.89,17.61-41.6Z"/>
    <path class="cls-3" d="m463.36,123.37c3.83-6.67,12.64-6.39,14.06-1.28-3.27-1.99-7.67-.99-9.09,2.27-1.14,2.84.28,6.11,5.11,6.11,8.09,0,13.91-5.68,24.42-27.12,10.22-21.16,22.86-34.5,35.21-37.06l-7.24-2.56c-8.38-2.7-23.57-4.97-32.94,6.96-6.96,8.8-4.54,19.74-.14,23.29-10.22,2.7-19.17-8.23-11.36-21.01,8.94-14.77,29.25-17.75,47.14-14.62,17.32,2.98,33.08,1.28,32.37-4.12,6.25.99,7.95,12.49-1.42,16.19-6.39,2.56-13.35.57-21.44-2.27-9.37,3.69-19.45,16.33-27.97,37.06-9.23,22.58-20.02,35.07-32.94,35.07s-17.46-10.36-13.77-16.9Z"/>
    <path class="cls-3" d="m517.03,112.15c5.82-11.78,14.06-18.46,22.01-18.88,5.82-.14,8.95,3.83,7.53,11.64,3.55.71,6.81-.28,8.94-2.7.71-.43,1.7-.14,1.42.71-2.7,3.41-6.96,5.4-11.07,5.11-.57,2.13-1.42,4.54-2.56,7.1-5.25,11.64-14.62,19.59-23.14,19.03-7.67-.57-8.52-11.07-3.12-22.01Zm21.16.28c4.4-11.64,2.84-16.47.71-16.47-2.98,0-6.67,4.4-11.22,15.19-3.98,9.65-3.55,16.33.14,16.33,2.7,0,6.25-4.4,10.37-15.05Z"/>
    <path class="cls-3" d="m547.69,118.26l11.22-23.14h9.8c-1.42,2.84-9.23,20.3-10.93,24-1.56,3.83-2.7,7.24.14,7.1,2.56,0,6.96-6.25,11.79-15.33l7.67-15.76h9.65l-10.79,24c-1.7,3.83-3.83,7.1-1.42,7.1,3.27,0,11.78-10.51,18.32-24,.57-.43,1.56-.14,1.42.71-9.09,18.6-18.88,31.52-25.42,31.52-5.54,0-6.96-4.54-5.4-10.22-4.4,6.39-8.38,10.22-12.07,10.22-7.81,0-8.24-7.95-3.98-16.19Z"/>
    <path class="cls-3" d="m589.01,125.36c1.99-7.1,7.53-15.48,9.37-18.46,3.98-5.96,1.28-6.1-3.69-3.98-1.42.71-4.54.28-3.69-5.54.85-5.11,4.54-10.08,7.38-10.22,3.83-.14,2.98,3.98-2.27,12.92,3.69-1.42,13.35-6.39,16.04-4.97,1.56.85,1.14,3.41-3.27,9.94-4.12,5.96-7.53,12.64-8.52,16.33-.71,2.56-.99,4.83.57,4.83,3.98,0,12.07-10.51,18.46-24,.71-.43,1.56-.14,1.42.71-9.09,18.6-17.75,31.52-26.41,31.52-4.69,0-6.53-4.26-5.4-9.09Z"/>
    <path class="cls-3" d="m608.18,124.08c.28-3.55,2.56-7.38,4.97-7.1-4.12,4.83-1.56,9.65,2.41,9.8,3.98.14,5.11-2.98,5.11-5.68.14-4.26-2.13-14.06-1.28-18.88.57-3.55,3.12-6.25,6.11-7.1h8.95c-9.51,6.25-3.55,16.61-4.54,26.12-.14,1.99-.57,3.69-1.14,5.11,6.25-4.69,11.08-12.92,16.47-24.14.57-.43,1.42-.14,1.42.71-9.23,18.6-17.75,31.52-29.39,31.52h-.71c-5.4,0-8.66-4.83-8.38-10.36Z"/>
    <path class="cls-3" d="m669.51,95.11h9.37l-2.98,6.67c3.98-4.83,8.24-8.38,12.78-8.38,4.26,0,6.39,3.55,4.54,11.64,3.27.14,6.67-.85,9.37-2.84.71-.43,1.7-.14,1.42.71-3.27,2.98-7.53,4.83-11.64,5.11-.57,2.13-1.56,4.54-2.7,7.24-5.68,13.06-12.35,19.03-17.61,19.17-3.41,0-6.96-2.27-7.24-6.96l-11.36,25.98h-9.37l25.42-58.35Zm0,32.66c4.97,0,9.37-10.93,10.51-13.49,4.4-10.22,4.54-13.06,1.7-13.06-4.26,0-8.38,6.81-11.07,12.92l-2.56,5.82c-1.85,4.26-2.27,7.81,1.42,7.81Z"/>
    <path class="cls-3" d="m695.77,117.83c2.84-6.25,6.39-14.06,9.37-22.72h9.8c-2.84,7.67-6.81,16.9-9.94,23.43-2.13,4.69-1.99,8.52,1.14,8.52,3.83,0,9.66-10.65,12.35-22.43-2.27-3.41-.99-8.52,1.42-12.35,6.53-.71,9.94,3.98,7.1,12.49,3.27.85,6.25-.14,8.94-2.56.71-.43,1.56-.14,1.42.71-3.55,3.69-7.53,5.68-11.5,5.11l-1.42,2.7c-7.24,13.2-18.17,23.71-25.7,23.71-5.4,0-7.53-6.96-2.98-16.61Z"/>
  </g>
  <g>
    <circle class="cls-3" cx="98.03" cy="98.03" r="98.03"/>
    <path class="cls-2" d="m40.34,155.15l2.71-1.21c-3.52,7.03,0,3.22,0,3.22l2.51-3.72c14.77-5.12,32.06.5,32.06.5v.8s-1.51.8-1,2.31c.5,1.51,1.51-.5,1.91-1,.4-.5,2.21,0,2.21,0,1.41-3.82,10.35-10.85,23.01-15.58,12.66-4.72,13.47,2.61,13.47,2.61,0,0-13.36,10.25-6.53,10.55,6.83.3,7.74-9.75,7.74-9.75,2.11-3.52,18.19-26.63,8.14-61.5-10.05-34.87-40.09-48.03-40.09-48.03l1.99-23.74c.12-.37.23-.6.32-.63.5-.15,2.36.95,2.36.95-4.32-6.78-13.87-1.86-13.87,1.21s-.35,5.53-3.27,7.29c-2.91,1.76-10.55-2.86-10.55-2.86.75,4.37,10.15,7.89,12.41,7.34,2.26-.55,4.37-1.06,4.37-6.03s6.93-1.11,6.93-1.11c0,0,0-.04.02-.1l-1.73,17.19s-3.12-1.91-3.92-2.01c-.8-.1-.4,1-.4,1l4.42,2.21c-.13,7.47-.69,14.66-1.58,21.56-.08.59-.7,4.96-.79,5.5-8.83,55.86-39.04,90.71-39.04,90.71-5.12,1.31-3.82,2.31-3.82,2.31Zm71.85-3.12c-4.8,1.73,4.07-5.6,4.07-5.6,0,0,.73,3.87-4.07,5.6Zm-26.06-116c16.68,56.21-.07,94.32-.07,94.32,8.11-38.18-1.88-70.6-1.88-70.6.8-3.95,1.95-23.72,1.95-23.72Z"/>
    <path class="cls-1" d="m158.43,157.85c-.28,0-.67-.02-1.17-.04-18.35-.65-36.29-.28-53.34,1.1.1-1.01.05-2.65-1.07-3.87-1.16-1.26-3.11-1.7-5.82-1.31-7.72,1.13-33.23,8.29-34.31,8.59l-.23.06-.13.2c-.44.7-.3,1.17-.11,1.43.49.67,1.69.48,2.18.36.31-.07,30.96-7.2,34.63-7.59,1.24-.13,2.06.1,2.14.61.05.34-.2.67-.31.69-.6.12-.89.44-1.02.69-.09.16-.13.33-.15.49-25.95,2.39-47.65,7.05-64.67,13.85.74.63,1.5,1.24,2.26,1.85,30.72-11.31,73.42-13.79,104.96-13.79h.3c-1.06.68-2.51,1.65-4.2,2.9-1.6-.09-2.89-.1-2.91-.1h0c-50.69-1.43-86.12,8.88-95.77,12.08-.2.07-.35.11-.43.14-.06.02-.15.05-.25.09.79.6,1.59,1.18,2.39,1.76,37.75-11.22,76.99-11.89,93.89-11.54-4.47,3.7-10.11,9.28-13.99,16.29l-.05.11c-.07.21-.35,1.28.35,1.81.16.12.35.18.55.18.07,0,.14,0,.21-.02.43-.09.81-.46,1.16-1.11,1.83-3.39,6.31-10,15.65-16.15.49-.33,4.01-2.43,4.41-2.65,2.16-1.18,4.45-2.28,6.82-3.27h10.79l.14-.08c.44-.25,1.84-1.15,1.56-2.24-.24-.98-1.58-1.43-4.46-1.52Z"/>
  </g>
</svg>